<svg xmlns="http://www.w3.org/2000/svg" xmlns:xlink="http://www.w3.org/1999/xlink" width="500" zoomAndPan="magnify" viewBox="0 0 375 374.999991" height="500" preserveAspectRatio="xMidYMid meet" version="1.0"><defs><clipPath id="id1"><path d="M 32.1875 85 L 342.6875 85 L 342.6875 375 L 32.1875 375 Z M 32.1875 85 " clip-rule="nonzero"/></clipPath></defs><g clip-path="url(#id1)"><path fill="#db6b04" d="M 270.960938 88.789062 C 270.960938 88.789062 264.304688 84.300781 263.070312 85.714844 C 262.125 86.789062 267.605469 92.644531 267.605469 92.644531 C 272.285156 97.113281 277.621094 102.632812 284.089844 109.804688 C 296.253906 123.289062 325.613281 164.449219 325.222656 219.652344 C 324.695312 295.65625 263.414062 357.492188 187.4375 357.492188 C 111.460938 357.492188 50.179688 295.65625 49.652344 219.652344 C 49.265625 164.449219 78.621094 123.289062 90.777344 109.804688 C 97.25 102.628906 102.582031 97.113281 107.265625 92.644531 C 107.265625 92.644531 112.75 86.785156 111.804688 85.714844 C 110.570312 84.300781 103.914062 88.789062 103.914062 88.789062 C 60.8125 116.417969 32.1875 164.753906 32.1875 219.652344 C 32.1875 305.285156 101.832031 374.957031 187.433594 374.957031 C 273.035156 374.957031 342.675781 305.285156 342.675781 219.652344 C 342.6875 164.753906 314.0625 116.417969 270.960938 88.789062 Z M 270.960938 88.789062 " fill-opacity="1" fill-rule="nonzero"/></g><path fill="#db6b04" d="M 229.992188 96.320312 C 229.992188 96.320312 264.410156 165.308594 245.566406 204.183594 C 236.894531 222.050781 228.492188 239.75 218.9375 256.175781 C 219.0625 256.007812 219.152344 255.90625 219.152344 255.90625 C 199.128906 292.835938 192.539062 325.242188 191.023438 348.667969 C 193.128906 348.609375 195.21875 348.5 197.292969 348.34375 C 201.484375 348.019531 205.617188 347.496094 209.6875 346.777344 C 218.4375 327.757812 232.203125 305.28125 260.730469 275.902344 C 331.679688 202.839844 229.992188 96.320312 229.992188 96.320312 Z M 229.992188 96.320312 " fill-opacity="1" fill-rule="nonzero"/><path fill="#ff7a00" d="M 229.992188 96.320312 C 241.488281 170.574219 223.261719 182.617188 185.523438 245.632812 C 164.890625 280.101562 164.71875 317.554688 170.316406 347.578125 C 175.925781 348.335938 181.632812 348.761719 187.4375 348.761719 C 187.839844 348.761719 188.238281 348.738281 188.640625 348.734375 C 190.304688 327.359375 194.453125 309.632812 199.191406 295.628906 C 207.441406 271.324219 217.382812 258.148438 218.9375 256.175781 C 228.492188 239.75 238.726562 223.726562 247.394531 205.863281 C 266.242188 166.984375 229.992188 96.320312 229.992188 96.320312 Z M 229.992188 96.320312 " fill-opacity="1" fill-rule="nonzero"/><path fill="#db6b04" d="M 181.152344 0.0429688 C 181.152344 0.0429688 205.886719 85.9375 179.714844 131.320312 C 179.714844 131.320312 111.683594 232.988281 161.207031 328.855469 C 161.207031 328.855469 161.117188 328.574219 160.972656 328.027344 C 159.230469 321.433594 150.113281 275.703125 206.535156 201.453125 C 206.535156 201.457031 274.25 125.878906 181.152344 0.0429688 Z M 181.152344 0.0429688 " fill-opacity="1" fill-rule="nonzero"/><path fill="#ff7a00" d="M 181.59375 132.222656 C 207.761719 86.839844 181.152344 0.0429688 181.152344 0.0429688 C 181.152344 0.0429688 183.226562 31.050781 144.894531 90.609375 C 106.5625 150.175781 79.648438 205.652344 101.667969 270.929688 C 111.828125 301.042969 126.84375 323.6875 140.238281 339.667969 C 145.949219 341.945312 151.859375 343.824219 157.929688 345.273438 C 146.847656 319.125 133.417969 274.449219 141.632812 223.605469 C 141.636719 223.605469 150.816406 169.695312 181.59375 132.222656 Z M 181.59375 132.222656 " fill-opacity="1" fill-rule="nonzero"/></svg>